# xmcd
#
# Track frame offsets: 
#        150
#        10560
#        21953
#        32523
#        40312
#        49235
#        58697
#        68481
#        78751
#        86014
#        104086
#        113679
#        125704
#        136867
#        149667
#        163280
#        176677
#        189712
#        201747
#        213804
#        226308
#
# Disc length: 3213 seconds
#
# Revision: 0
# Processed by: cddbd v1.5.2PL0 Copyright (c) Steve Scherf et al.
# Submitted via: ExactAudioCopyFreeDBPlugin 1.0
#
DISCID=2e0c8b15
DTITLE=The Statler Brothers - Complete Singles Collection 1964-1994 D1
DYEAR=2011
DGENRE=Christian Rock
TTITLE0=The Wreck Of The Old '97
TTITLE1=I Still Miss Someone
TTITLE2=Flowers On The Wall
TTITLE3=My Darling Hildegarde
TTITLE4=The Right One
TTITLE5=That'll Be The Day
TTITLE6=Ruthless
TTITLE7=You Can't Have Your Kate And Edith, Too
TTITLE8=Jump For Joy
TTITLE9=Sissy
TTITLE10=I'm The Boy
TTITLE11=Oh Happy Day
TTITLE12=Bed Of Rose's
TTITLE13=New York City
TTITLE14=Pictures
TTITLE15=You Can't Go Home
TTITLE16=Do You Remember These
TTITLE17=The Class Of '57
TTITLE18=Monday Morning Secretary
TTITLE19=Woman Without A Home
TTITLE20=Carry Me Back
EXTD=
EXTT0=
EXTT1=
EXTT2=
EXTT3=
EXTT4=
EXTT5=
EXTT6=
EXTT7=
EXTT8=
EXTT9=
EXTT10=
EXTT11=
EXTT12=
EXTT13=
EXTT14=
EXTT15=
EXTT16=
EXTT17=
EXTT18=
EXTT19=
EXTT20=
PLAYORDER=
